<svg width="41" height="32" viewBox="0 0 41 32" fill="none" xmlns="http://www.w3.org/2000/svg">
<path d="M37.1171 27.416C40.8911 23.32 40.5111 18.06 40.4991 18V12V2C40.4991 0.896 39.6051 0 38.4991 0H26.4991C24.2931 0 22.4991 1.794 22.4991 4V18C22.4991 19.104 23.3931 20 24.4991 20H26.4991H30.6551C30.6131 20.804 30.4091 21.824 29.7971 22.792C28.7811 24.394 26.8671 25.488 24.1051 26.04L22.4991 26.36V32H24.4991C30.0651 32 34.3111 30.458 37.1171 27.416ZM15.1031 27.416C18.8791 23.32 18.4971 18.06 18.4851 18V12V2C18.4851 0.896 17.5911 0 16.4851 0H4.48511C2.27911 0 0.485107 1.794 0.485107 4V18C0.485107 19.104 1.37911 20 2.48511 20H4.48511H8.64111C8.59911 20.804 8.39511 21.824 7.78311 22.792C6.76711 24.394 4.85311 25.488 2.09111 26.04L0.485107 26.36V32H2.48511C8.05111 32 12.2971 30.458 15.1031 27.416Z" fill="#CACACA"/>
</svg>
