<svg width="141" height="30" viewBox="0 0 141 30" fill="none" xmlns="http://www.w3.org/2000/svg">
<path fill-rule="evenodd" clip-rule="evenodd" d="M7.05683 9.21V11.0714H0.098877V1.44434H2.44363V9.21H7.05683Z" fill="#87A2B1"/>
<path fill-rule="evenodd" clip-rule="evenodd" d="M11.0071 9.62661C11.2268 9.62661 11.4379 9.62318 11.6377 9.61314C11.8387 9.60401 11.9994 9.59008 12.1192 9.57136V8.00125C12.0288 7.98298 11.894 7.96449 11.7138 7.94669C11.534 7.92751 11.3671 7.91769 11.2179 7.91769C11.0071 7.91769 10.8095 7.93025 10.6234 7.95353C10.4392 7.97568 10.2757 8.02042 10.1347 8.0848C9.99446 8.14894 9.88507 8.23774 9.80556 8.34937C9.72531 8.46032 9.68433 8.59843 9.68433 8.76507C9.68433 9.08923 9.8026 9.31477 10.0379 9.43873C10.2725 9.56497 10.596 9.62661 11.0071 9.62661ZM10.8272 3.56909C11.4885 3.56909 12.0393 3.63895 12.4796 3.77706C12.9208 3.91699 13.2742 4.11628 13.5391 4.3747C13.8056 4.63357 13.993 4.94973 14.1028 5.31978C14.2132 5.69051 14.268 6.10278 14.268 6.55523V10.8636C13.9475 10.9282 13.5014 11.0049 12.9312 11.0923C12.3598 11.1795 11.6687 11.2245 10.8566 11.2245C10.346 11.2245 9.88274 11.1832 9.46643 11.0996C9.05062 11.0161 8.69259 10.8796 8.39184 10.6889C8.09208 10.5008 7.86121 10.2522 7.70096 9.94635C7.5412 9.64045 7.45972 9.26538 7.45972 8.82138C7.45972 8.39472 7.5533 8.03335 7.73849 7.73704C7.92393 7.44074 8.17183 7.20515 8.48271 7.02869C8.79308 6.85314 9.1489 6.7253 9.54989 6.64655C9.95064 6.56779 10.3665 6.52784 10.7963 6.52784C11.087 6.52784 11.345 6.54108 11.5714 6.56322C11.7964 6.58697 11.9784 6.61664 12.1193 6.65385V6.45913C12.1193 6.10735 12.0043 5.82519 11.7739 5.61106C11.543 5.39899 11.1423 5.29261 10.5707 5.29261C10.1909 5.29261 9.81484 5.31772 9.44372 5.36909C9.07309 5.41931 8.75333 5.49122 8.48271 5.58276L8.19727 3.91699C8.32715 3.87955 8.48962 3.84029 8.68518 3.79897C8.88074 3.75583 9.09334 3.72021 9.32421 3.68825C9.55483 3.65493 9.79805 3.62685 10.0526 3.60379C10.3084 3.58051 10.566 3.56909 10.8272 3.56909Z" fill="#87A2B1"/>
<path fill-rule="evenodd" clip-rule="evenodd" d="M20.6265 7.19501C20.6265 6.52798 20.5339 6.05635 20.3487 5.77853C20.1635 5.5014 19.845 5.36192 19.3946 5.36192C19.2544 5.36192 19.1085 5.36922 18.9588 5.38269C18.8087 5.39639 18.6635 5.41237 18.5235 5.43177V11.0715H16.2839V4.01415C16.4743 3.96872 16.6965 3.91827 16.9521 3.86782C17.2077 3.8176 17.4783 3.77126 17.7642 3.72857C18.0504 3.68839 18.3418 3.65529 18.643 3.632C18.9435 3.60872 19.2386 3.59753 19.5309 3.59753C20.1008 3.59753 20.565 3.66396 20.9203 3.79933C21.2757 3.93242 21.569 4.09359 21.7991 4.27872C22.1196 4.06597 22.4878 3.89818 22.9029 3.77742C23.3194 3.6578 23.7029 3.59753 24.0535 3.59753C24.6844 3.59753 25.2029 3.67857 25.6081 3.84043C26.0136 4.00319 26.3378 4.23193 26.5778 4.52801C26.8178 4.82432 26.9825 5.17747 27.0733 5.58289C27.165 5.99266 27.2092 6.44625 27.2092 6.94527V11.0715H24.9701V7.19501C24.9701 6.52798 24.8772 6.05635 24.6918 5.77853C24.5066 5.5014 24.1881 5.36192 23.7377 5.36192C23.6175 5.36192 23.4488 5.38931 23.2345 5.44478C23.0194 5.5014 22.8406 5.56965 22.7006 5.6532C22.7705 5.8671 22.8147 6.09173 22.8364 6.32686C22.856 6.56336 22.8663 6.81515 22.8663 7.0843V11.0715H20.6265V7.19501Z" fill="#4F667C"/>
<path fill-rule="evenodd" clip-rule="evenodd" d="M33.5205 6.68109C33.5104 6.50509 33.4778 6.33433 33.4227 6.16723C33.3671 5.9999 33.2832 5.85266 33.1671 5.72209C33.0516 5.59379 32.9061 5.48604 32.7318 5.40363C32.5553 5.32008 32.3377 5.27831 32.0777 5.27831C31.8273 5.27831 31.6123 5.31803 31.4325 5.39633C31.2505 5.47623 31.1009 5.57964 30.9814 5.70907C30.8604 5.83897 30.7678 5.98895 30.7029 6.15993C30.6382 6.33182 30.5905 6.50509 30.5597 6.68109H33.5205ZM28.2607 7.47408C28.2607 6.82508 28.3682 6.25803 28.5845 5.77202C28.7993 5.28441 29.082 4.88127 29.4324 4.55619C29.7832 4.23181 30.1862 3.98595 30.6423 3.81862C31.0983 3.6522 31.566 3.56934 32.047 3.56934C33.1698 3.56934 34.0564 3.88619 34.7071 4.52081C35.3589 5.15543 35.6844 6.09047 35.6844 7.32022C35.6844 7.44098 35.6804 7.57384 35.6691 7.71697C35.6592 7.85942 35.6491 7.98794 35.6399 8.09866H30.5596C30.6102 8.52486 30.8253 8.8634 31.2065 9.11245C31.5865 9.36333 32.0971 9.48843 32.7391 9.48843C33.1498 9.48843 33.5525 9.4535 33.9485 9.38342C34.3444 9.31494 34.6673 9.22865 34.9179 9.12638L35.2184 10.8074C35.0977 10.8638 34.9382 10.9179 34.7377 10.9745C34.5372 11.0298 34.3145 11.0784 34.0688 11.12C33.8234 11.162 33.5611 11.1964 33.2799 11.2247C32.9991 11.2528 32.7191 11.2658 32.4384 11.2658C31.7268 11.2658 31.1082 11.1693 30.583 10.9745C30.0576 10.7796 29.6205 10.5143 29.2761 10.1753C28.9292 9.83793 28.6746 9.43707 28.5089 8.97457C28.3437 8.51116 28.2607 8.01122 28.2607 7.47408Z" fill="#4F667C"/>
<path fill-rule="evenodd" clip-rule="evenodd" d="M36.8108 4.01415C37.1923 3.91096 37.6832 3.8176 38.2839 3.72857C38.8847 3.64182 39.5165 3.59753 40.1775 3.59753C40.8489 3.59753 41.4075 3.67857 41.8534 3.84042C42.2991 4.00319 42.6527 4.23193 42.9127 4.52801C43.1729 4.82432 43.3591 5.17747 43.468 5.58312C43.5796 5.99266 43.6342 6.44625 43.6342 6.94527V11.0717H41.3949V7.19501C41.3949 6.52797 41.2996 6.05635 41.1084 5.77853C40.9188 5.5014 40.5627 5.36192 40.0425 5.36192C39.8822 5.36192 39.7116 5.36922 39.5314 5.38269C39.3516 5.39639 39.1901 5.41237 39.0506 5.43177V11.0717H36.8108V4.01415Z" fill="#4F667C"/>
<path fill-rule="evenodd" clip-rule="evenodd" d="M44.9861 1.94401L47.2252 1.61072V3.76409H49.9148V5.48602H47.2252V8.05783C47.2252 8.4927 47.3076 8.83992 47.4738 9.09856C47.639 9.3588 47.9723 9.48847 48.4728 9.48847C48.7141 9.48847 48.961 9.46724 49.2166 9.42523C49.4721 9.38346 49.7055 9.32616 49.9148 9.2506L50.2314 10.8639C49.96 10.9657 49.6608 11.0536 49.3289 11.1278C48.999 11.2013 48.5926 11.238 48.1123 11.238C47.5012 11.238 46.9943 11.162 46.5935 11.0088C46.1928 10.8559 45.873 10.6436 45.6328 10.371C45.393 10.0966 45.2253 9.7656 45.1295 9.37752C45.034 8.98762 44.9861 8.55731 44.9861 8.08499V1.94401Z" fill="#4F667C"/>
<path fill-rule="evenodd" clip-rule="evenodd" d="M55.7149 6.68109C55.7055 6.50509 55.6724 6.33433 55.6178 6.16723C55.5632 5.9999 55.4783 5.85266 55.3632 5.72209C55.2474 5.59379 55.1018 5.48604 54.9277 5.40363C54.7506 5.32008 54.5333 5.27831 54.2726 5.27831C54.0232 5.27831 53.8079 5.31803 53.6269 5.39633C53.4466 5.47623 53.2958 5.57964 53.1763 5.70907C53.0553 5.83897 52.9632 5.98895 52.8982 6.15993C52.8331 6.33182 52.7851 6.50509 52.756 6.68109H55.7149ZM50.4561 7.47408C50.4561 6.82508 50.564 6.25803 50.7795 5.77202C50.9938 5.28441 51.2778 4.88127 51.6282 4.55619C51.9793 4.23181 52.383 3.98595 52.8371 3.81862C53.2946 3.6522 53.7628 3.56934 54.2441 3.56934C55.3638 3.56934 56.2515 3.88619 56.9026 4.52081C57.555 5.15543 57.8799 6.09047 57.8799 7.32022C57.8799 7.44098 57.8748 7.57384 57.8641 7.71697C57.8548 7.85942 57.8449 7.98794 57.8353 8.09866H52.7561C52.8053 8.52486 53.0206 8.8634 53.4023 9.11245C53.7828 9.36333 54.2934 9.48843 54.9357 9.48843C55.3446 9.48843 55.7495 9.4535 56.1446 9.38342C56.5394 9.31494 56.8634 9.22865 57.1128 9.12638L57.414 10.8074C57.2943 10.8638 57.134 10.9179 56.9333 10.9745C56.733 11.0298 56.5103 11.0784 56.2644 11.12C56.0194 11.162 55.7562 11.1964 55.4749 11.2247C55.1954 11.2528 54.9137 11.2658 54.6337 11.2658C53.9223 11.2658 53.3038 11.1693 52.7786 10.9745C52.2521 10.7796 51.8171 10.5143 51.4702 10.1753C51.1257 9.83793 50.8701 9.43707 50.704 8.97457C50.5393 8.51116 50.4561 8.01122 50.4561 7.47408Z" fill="#4F667C"/>
<path fill-rule="evenodd" clip-rule="evenodd" d="M64.367 6.68109C64.3576 6.50509 64.3245 6.33433 64.27 6.16723C64.2149 5.9999 64.1297 5.85266 64.0144 5.72209C63.8993 5.59379 63.7539 5.48604 63.5783 5.40363C63.4028 5.32008 63.186 5.27831 62.9255 5.27831C62.6749 5.27831 62.4586 5.31803 62.2791 5.39633C62.0983 5.47623 61.9479 5.57964 61.8284 5.70907C61.7087 5.83897 61.6148 5.98895 61.5489 6.15993C61.4847 6.33182 61.4373 6.50509 61.4074 6.68109H64.367ZM59.1082 7.47408C59.1082 6.82508 59.2151 6.25803 59.4314 5.77202C59.6459 5.28441 59.9294 4.88127 60.2798 4.55619C60.6302 4.23181 61.0336 3.98595 61.4897 3.81862C61.9453 3.6522 62.4149 3.56934 62.8957 3.56934C64.0167 3.56934 64.9043 3.88619 65.5547 4.52081C66.2064 5.15543 66.5308 6.09047 66.5308 7.32022C66.5308 7.44098 66.5261 7.57384 66.5175 7.71697C66.5071 7.85942 66.4962 7.98794 66.4869 8.09866H61.4075C61.4573 8.52486 61.6714 8.8634 62.0537 9.11245C62.4342 9.36333 62.9453 9.48843 63.5865 9.48843C63.9959 9.48843 64.4004 9.4535 64.7964 9.38342C65.1915 9.31494 65.5147 9.22865 65.7654 9.12638L66.0661 10.8074C65.9459 10.8638 65.7849 10.9179 65.5839 10.9745C65.3844 11.0298 65.1604 11.0784 64.9157 11.12C64.6705 11.162 64.4078 11.1964 64.1278 11.2247C63.847 11.2528 63.5658 11.2658 63.2858 11.2658C62.5744 11.2658 61.9561 11.1693 61.4299 10.9745C60.9042 10.7796 60.4677 10.5143 60.1223 10.1753C59.7763 9.83793 59.5217 9.43707 59.3561 8.97457C59.1899 8.51116 59.1082 8.01122 59.1082 7.47408Z" fill="#87A2B1"/>
<path fill-rule="evenodd" clip-rule="evenodd" d="M69.928 9.58487C70.3384 9.58487 70.6295 9.54789 70.7999 9.47324C70.9695 9.39951 71.0544 9.25546 71.0544 9.04316C71.0544 8.87629 70.9448 8.73042 70.7241 8.60646C70.5038 8.4809 70.168 8.33937 69.7174 8.18208C69.366 8.06155 69.049 7.93623 68.763 7.80725C68.4776 7.67758 68.2351 7.52167 68.0336 7.3411C67.8336 7.16053 67.6793 6.94526 67.5682 6.69415C67.4578 6.44601 67.4032 6.14377 67.4032 5.79244C67.4032 5.10714 67.6793 4.56497 68.2299 4.16662C68.7811 3.76805 69.5376 3.56921 70.4994 3.56921C70.9801 3.56921 71.4406 3.60848 71.8811 3.68815C72.3224 3.76622 72.6728 3.85137 72.9345 3.94519L72.5424 5.55571C72.2821 5.47216 71.9994 5.39911 71.6935 5.33474C71.3875 5.26945 71.0461 5.23726 70.6636 5.23726C69.9633 5.23726 69.6134 5.41646 69.6134 5.77829C69.6134 5.86184 69.6275 5.93557 69.6559 5.99972C69.6873 6.06501 69.748 6.12756 69.8374 6.18851C69.928 6.24946 70.0497 6.31315 70.2058 6.38346C70.3608 6.45331 70.5591 6.53002 70.7999 6.61448C71.2907 6.7825 71.6957 6.94891 72.0167 7.1119C72.3377 7.27581 72.5905 7.45181 72.776 7.64106C72.9609 7.83099 73.0913 8.04055 73.1671 8.27111C73.2412 8.50282 73.2789 8.77105 73.2789 9.07489C73.2789 9.79649 72.9849 10.3423 72.3999 10.7123C71.8135 11.0813 70.9843 11.2657 69.9127 11.2657C69.2119 11.2657 68.628 11.2111 68.1628 11.0997C67.6956 10.9879 67.3741 10.8957 67.1931 10.8217L67.5682 9.14086C67.9497 9.27875 68.3393 9.38832 68.7398 9.46685C69.1413 9.54561 69.5376 9.58487 69.928 9.58487Z" fill="#87A2B1"/>
<path fill-rule="evenodd" clip-rule="evenodd" d="M8.08218 21.1729C8.08218 19.9315 7.90934 19.0529 7.56439 18.5358C7.2187 18.0181 6.62807 17.7601 5.78879 17.7601C5.5273 17.7601 5.25816 17.7734 4.97815 17.7994C4.69864 17.8254 4.42777 17.8546 4.16677 17.8898V28.3866H0V15.252C0.354083 15.1664 0.768908 15.0758 1.24497 14.9813C1.71906 14.8861 2.22302 14.7998 2.75464 14.7219C3.28601 14.6443 3.83145 14.585 4.39073 14.5409C4.94926 14.4987 5.49989 14.4761 6.04065 14.4761C7.1029 14.4761 7.96613 14.6014 8.62738 14.8518C9.28937 15.1011 9.83432 15.3986 10.2632 15.7437C10.86 15.347 11.5452 15.0365 12.3188 14.8128C13.0927 14.5891 13.8053 14.4761 14.4586 14.4761C15.6337 14.4761 16.5982 14.6272 17.3528 14.9297C18.1079 15.231 18.7094 15.6574 19.1575 16.2092C19.6047 16.7605 19.9116 17.4156 20.079 18.1731C20.2477 18.9328 20.3311 19.7774 20.3311 20.7084V28.3866H16.1644V21.1729C16.1644 19.9315 15.9918 19.0529 15.6468 18.5358C15.3021 18.0181 14.7105 17.7601 13.8717 17.7601C13.6482 17.7601 13.3349 17.8115 12.9339 17.9151C12.5334 18.0181 12.2023 18.148 11.942 18.303C12.0719 18.7 12.1554 19.1173 12.1931 19.5569C12.2309 19.997 12.249 20.4657 12.249 20.9666V28.3866H8.08218V21.1729Z" fill="#4F667C"/>
<path fill-rule="evenodd" clip-rule="evenodd" d="M28.6105 25.6974C29.0199 25.6974 29.411 25.689 29.7841 25.6718C30.1577 25.6547 30.4552 25.6285 30.6792 25.5935V22.6731C30.5108 22.6384 30.2599 22.604 29.9241 22.5688C29.589 22.535 29.2811 22.5172 29.0013 22.5172C28.6105 22.5172 28.2411 22.5389 27.8959 22.5818C27.5517 22.625 27.2485 22.7074 26.9877 22.8277C26.726 22.9482 26.522 23.1117 26.3719 23.3189C26.2235 23.526 26.1484 23.7844 26.1484 24.0942C26.1484 24.6978 26.3677 25.1157 26.806 25.3484C27.244 25.5812 27.8448 25.6974 28.6105 25.6974ZM28.2744 14.4241C29.5048 14.4241 30.5288 14.554 31.3505 14.8126C32.17 15.0708 32.8278 15.4424 33.3222 15.9241C33.815 16.4076 34.1654 16.9934 34.3706 17.6832C34.5765 18.372 34.679 19.1394 34.679 19.9834V27.9986C34.0817 28.1196 33.2523 28.2609 32.1895 28.4246C31.127 28.5894 29.8398 28.6718 28.3304 28.6718C27.3793 28.6718 26.5168 28.5935 25.7434 28.438C24.9689 28.283 24.3037 28.0292 23.7441 27.676C23.1841 27.3229 22.7547 26.8613 22.4572 26.2926C22.1587 25.7233 22.0093 25.0252 22.0093 24.1977C22.0093 23.4051 22.1816 22.734 22.5271 22.1815C22.8715 21.6293 23.3335 21.1901 23.9118 20.8632C24.4893 20.5354 25.1508 20.2987 25.8975 20.1521C26.6425 20.006 27.4163 19.9314 28.2181 19.9314C28.7586 19.9314 29.2393 19.954 29.6581 19.9969C30.0776 20.0402 30.4174 20.0959 30.6791 20.1651V19.8035C30.6791 19.1479 30.4643 18.6226 30.0361 18.2254C29.607 17.8287 28.8613 17.631 27.7978 17.631C27.0906 17.631 26.3899 17.6782 25.7007 17.7734C25.0108 17.8679 24.4153 18.0019 23.9118 18.1731L23.3797 15.0708C23.6219 15.0021 23.9249 14.9297 24.2893 14.8516C24.6526 14.7733 25.0486 14.7049 25.4775 14.6444C25.9064 14.5848 26.358 14.5325 26.8334 14.4894C27.3099 14.4462 27.7892 14.4241 28.2744 14.4241Z" fill="#4F667C"/>
<path fill-rule="evenodd" clip-rule="evenodd" d="M46.2006 18.1995C45.827 18.1136 45.3888 18.0232 44.8855 17.9285C44.3816 17.8335 43.8416 17.7863 43.2635 17.7863C43.0018 17.7863 42.6902 17.8077 42.3267 17.8506C41.9627 17.894 41.6874 17.9406 41.502 17.9922V28.3865H37.3342V15.5112C38.0802 15.2695 38.9609 15.0414 39.9773 14.8266C40.9938 14.6104 42.1265 14.5024 43.3756 14.5024C43.5991 14.5024 43.8695 14.5152 44.186 14.541C44.5028 14.5668 44.8201 14.6013 45.1372 14.6444C45.4535 14.6876 45.7703 14.7403 46.0885 14.7997C46.4053 14.8592 46.675 14.9334 46.8989 15.0193L46.2006 18.1995Z" fill="#4F667C"/>
<path fill-rule="evenodd" clip-rule="evenodd" d="M53.3592 25.6974C53.7696 25.6974 54.1607 25.689 54.5341 25.6718C54.9067 25.6547 55.2045 25.6285 55.4292 25.5935V22.6731C55.2617 22.6384 55.0096 22.604 54.6738 22.5688C54.3388 22.535 54.0316 22.5172 53.7508 22.5172C53.3592 22.5172 52.9908 22.5389 52.6456 22.5818C52.3007 22.625 51.9982 22.7074 51.7375 22.8277C51.4762 22.9482 51.2708 23.1117 51.1221 23.3189C50.9737 23.526 50.8987 23.7844 50.8987 24.0942C50.8987 24.6978 51.1177 25.1157 51.556 25.3484C51.994 25.5812 52.5953 25.6974 53.3592 25.6974ZM53.0234 14.4241C54.2548 14.4241 55.279 14.554 56.1007 14.8126C56.9198 15.0708 57.5781 15.4424 58.0717 15.9241C58.565 16.4076 58.9161 16.9934 59.1208 17.6832C59.3258 18.372 59.4282 19.1394 59.4282 19.9834V27.9986C58.8309 28.1196 58.0025 28.2609 56.9385 28.4246C55.8768 28.5894 54.5901 28.6718 53.0794 28.6718C52.1298 28.6718 51.2665 28.5935 50.4932 28.438C49.7189 28.283 49.0529 28.0292 48.4931 27.676C47.9341 27.3229 47.5052 26.8613 47.2072 26.2926C46.9084 25.7233 46.7593 25.0252 46.7593 24.1977C46.7593 23.4051 46.9314 22.734 47.2771 22.1815C47.6213 21.6293 48.0835 21.1901 48.6608 20.8632C49.2388 20.5354 49.9008 20.2987 50.6463 20.1521C51.392 20.006 52.1663 19.9314 52.9678 19.9314C53.5088 19.9314 53.9888 19.954 54.4079 19.9969C54.8281 20.0402 55.1671 20.0959 55.4291 20.1651V19.8035C55.4291 19.1479 55.2145 18.6226 54.7856 18.2254C54.3572 17.8287 53.6113 17.631 52.5486 17.631C51.8399 17.631 51.1401 17.6782 50.4507 17.7734C49.7616 17.8679 49.1648 18.0019 48.6608 18.1731L48.1297 15.0708C48.3722 15.0021 48.6751 14.9297 49.0393 14.8516C49.4023 14.7733 49.7989 14.7049 50.2273 14.6444C50.6567 14.5848 51.108 14.5325 51.5836 14.4894C52.0592 14.4462 52.5394 14.4241 53.0234 14.4241Z" fill="#4F667C"/>
<path fill-rule="evenodd" clip-rule="evenodd" d="M65.7421 28.3865C64.7873 26.6634 63.8191 24.6463 62.8364 22.3359C61.8536 20.0264 60.9227 17.5103 60.0437 14.7869H64.4623C64.6492 15.4596 64.869 16.1874 65.1223 16.9711C65.3745 17.7563 65.6372 18.5487 65.9083 19.3495C66.1797 20.1522 66.4518 20.9322 66.7236 21.6908C66.995 22.4493 67.2624 23.1378 67.5249 23.7588C67.7676 23.1378 68.0296 22.4493 68.3101 21.6908C68.5908 20.9322 68.8661 20.1522 69.138 19.3495C69.4094 18.5487 69.6721 17.7563 69.9244 16.9711C70.1773 16.1874 70.3968 15.4596 70.5842 14.7869H74.8937C74.0147 17.5103 73.0848 20.0264 72.103 22.3359C71.1215 24.6463 70.1533 26.6634 69.1997 28.3865H65.7421Z" fill="#4F667C"/>
<path fill-rule="evenodd" clip-rule="evenodd" d="M75.9835 28.3867H80.1515V14.7871H75.9835V28.3867ZM80.5426 10.8566C80.5426 11.5642 80.2952 12.1203 79.8016 12.5244C79.3078 12.9294 78.7255 13.1318 78.0539 13.1318C77.3828 13.1318 76.7998 12.9294 76.3062 12.5244C75.8124 12.1203 75.5649 11.5642 75.5649 10.8566C75.5649 10.15 75.8124 9.59325 76.3062 9.18897C76.7998 8.78468 77.3828 8.58105 78.0539 8.58105C78.7255 8.58105 79.3078 8.78468 79.8016 9.18897C80.2952 9.59325 80.5426 10.15 80.5426 10.8566Z" fill="#4F667C"/>
<path fill-rule="evenodd" clip-rule="evenodd" d="M88.8193 28.6452C87.6081 28.628 86.6242 28.5068 85.8698 28.2829C85.115 28.0592 84.5172 27.7446 84.0801 27.3385C83.6421 26.9347 83.3431 26.4432 83.1848 25.8656C83.0265 25.2881 82.9468 24.6372 82.9468 23.9134V8.94292L87.1145 8.32336V23.1377C87.1145 23.4824 87.1417 23.7928 87.1978 24.0684C87.2541 24.3448 87.3612 24.5774 87.52 24.7669C87.678 24.9573 87.9059 25.1109 88.2054 25.2326C88.503 25.3524 88.904 25.4301 89.4079 25.465L88.8193 28.6452Z" fill="#4F667C"/>
<path fill-rule="evenodd" clip-rule="evenodd" d="M96.538 28.6452C95.3261 28.628 94.3431 28.5068 93.5878 28.2829C92.8332 28.0592 92.2352 27.7446 91.7989 27.3385C91.3601 26.9347 91.0618 26.4432 90.9035 25.8656C90.7453 25.2881 90.6663 24.6372 90.6663 23.9134V8.94292L94.8325 8.32336V23.1377C94.8325 23.4824 94.8597 23.7928 94.9165 24.0684C94.972 24.3448 95.0794 24.5774 95.2387 24.7669C95.3967 24.9573 95.6246 25.1109 95.9237 25.2326C96.2219 25.3524 96.6229 25.4301 97.1262 25.465L96.538 28.6452Z" fill="#4F667C"/>
<path fill-rule="evenodd" clip-rule="evenodd" d="M121.024 25.6195C121.788 25.6195 122.329 25.5513 122.646 25.4134C122.962 25.2751 123.121 25.008 123.121 24.6119C123.121 24.301 122.916 24.0305 122.506 23.7969C122.096 23.5643 121.471 23.3014 120.632 23.0087C119.98 22.785 119.388 22.5524 118.857 22.3104C118.325 22.0695 117.873 21.7805 117.5 21.445C117.127 21.1078 116.838 20.7083 116.633 20.2422C116.429 19.7774 116.326 19.2169 116.326 18.5616C116.326 17.2866 116.838 16.2778 117.864 15.5371C118.889 14.7956 120.297 14.4242 122.087 14.4242C122.982 14.4242 123.838 14.4986 124.659 14.6445C125.479 14.7906 126.132 14.9508 126.617 15.123L125.89 18.1217C125.404 17.9667 124.879 17.8288 124.31 17.7085C123.741 17.5877 123.102 17.5277 122.395 17.5277C121.089 17.5277 120.438 17.8637 120.438 18.536C120.438 18.6903 120.465 18.8296 120.52 18.9501C120.576 19.0709 120.689 19.1861 120.856 19.298C121.024 19.4114 121.252 19.5317 121.542 19.6619C121.831 19.7929 122.199 19.9363 122.646 20.0924C123.559 20.4045 124.314 20.7145 124.911 21.0169C125.508 21.3212 125.979 21.65 126.323 22.0022C126.668 22.3551 126.911 22.7469 127.051 23.1765C127.19 23.6063 127.261 24.1044 127.261 24.6724C127.261 26.0147 126.715 27.0294 125.625 27.7165C124.534 28.4037 122.991 28.7493 120.996 28.7493C119.691 28.7493 118.606 28.6454 117.738 28.4381C116.872 28.2315 116.27 28.0594 115.934 27.922L116.633 24.7927C117.342 25.0516 118.069 25.2538 118.815 25.4002C119.56 25.5476 120.297 25.6195 121.024 25.6195Z" fill="#4F667C"/>
<path fill-rule="evenodd" clip-rule="evenodd" d="M134.556 25.6974C134.966 25.6974 135.356 25.689 135.731 25.6718C136.103 25.6547 136.401 25.6285 136.626 25.5935V22.6731C136.458 22.6384 136.206 22.604 135.871 22.5688C135.535 22.535 135.227 22.5172 134.948 22.5172C134.556 22.5172 134.188 22.5389 133.843 22.5818C133.498 22.625 133.195 22.7074 132.934 22.8277C132.672 22.9482 132.467 23.1117 132.319 23.3189C132.17 23.526 132.094 23.7844 132.094 24.0942C132.094 24.6978 132.314 25.1157 132.752 25.3484C133.191 25.5812 133.791 25.6974 134.556 25.6974ZM134.221 14.4241C135.451 14.4241 136.476 14.554 137.297 14.8126C138.116 15.0708 138.774 15.4424 139.268 15.9241C139.762 16.4076 140.113 16.9934 140.317 17.6832C140.522 18.372 140.625 19.1394 140.625 19.9834V27.9986C140.028 28.1196 139.199 28.2609 138.136 28.4246C137.074 28.5894 135.786 28.6718 134.277 28.6718C133.326 28.6718 132.464 28.5935 131.69 28.438C130.915 28.283 130.249 28.0292 129.69 27.676C129.131 27.3229 128.701 26.8613 128.403 26.2926C128.105 25.7233 127.956 25.0252 127.956 24.1977C127.956 23.4051 128.128 22.734 128.474 22.1815C128.818 21.6293 129.281 21.1901 129.857 20.8632C130.436 20.5354 131.098 20.2987 131.843 20.1521C132.588 20.006 133.363 19.9314 134.164 19.9314C134.705 19.9314 135.185 19.954 135.605 19.9969C136.024 20.0402 136.363 20.0959 136.626 20.1651V19.8035C136.626 19.1479 136.411 18.6226 135.982 18.2254C135.554 17.8287 134.808 17.631 133.746 17.631C133.036 17.631 132.336 17.6782 131.647 17.7734C130.958 17.8679 130.361 18.0019 129.857 18.1731L129.326 15.0708C129.569 15.0021 129.872 14.9297 130.236 14.8516C130.599 14.7733 130.995 14.7049 131.424 14.6444C131.853 14.5848 132.305 14.5325 132.78 14.4894C133.255 14.4462 133.736 14.4241 134.221 14.4241Z" fill="#4F667C"/>
<path fill-rule="evenodd" clip-rule="evenodd" d="M104.231 0.990723C104.004 0.990723 103.785 1.01789 103.577 1.06948C104.371 1.88376 105.151 3.21372 105.821 5.21666C106.412 4.78247 106.791 4.11247 106.791 3.35937C106.791 2.05246 105.643 0.990723 104.231 0.990723Z" fill="#992A76"/>
<path fill-rule="evenodd" clip-rule="evenodd" d="M103.577 1.06958C102.478 1.33644 101.667 2.26075 101.667 3.35969C101.667 4.66706 102.817 5.72811 104.23 5.72811C104.831 5.72811 105.382 5.53749 105.821 5.21676C105.151 3.21382 104.371 1.88386 103.577 1.06958Z" fill="#D576AC"/>
<path fill-rule="evenodd" clip-rule="evenodd" d="M117.861 5.54257C116.276 5.47911 114.935 6.61709 114.868 8.08379C114.829 8.91245 115.207 9.66921 115.828 10.1817C117.737 8.38786 119.298 7.55053 120.449 7.30924C120.069 6.31736 119.068 5.58914 117.861 5.54257Z" fill="#D22724"/>
<path fill-rule="evenodd" clip-rule="evenodd" d="M120.449 7.30896C119.299 7.55025 117.737 8.38759 115.828 10.1814C116.307 10.5759 116.927 10.8254 117.617 10.8523C119.203 10.914 120.545 9.77668 120.612 8.3086C120.627 7.95888 120.569 7.62125 120.449 7.30896Z" fill="#F29325"/>
<path fill-rule="evenodd" clip-rule="evenodd" d="M109.683 5.15635C110.344 5.80649 110.307 6.39911 109.994 6.89242C110.048 6.91069 110.102 6.92461 110.155 6.94402C110.54 7.08783 110.911 7.26429 111.275 7.45559C113.28 6.27995 112.83 4.32016 112.712 3.92203C112.493 3.16939 112.022 2.49939 111.161 2.40351C110.193 2.29781 109.312 2.93769 109.198 3.83255C109.133 4.33933 109.331 4.81393 109.686 5.15452L109.683 5.15635Z" fill="#5567A8"/>
<path fill-rule="evenodd" clip-rule="evenodd" d="M114.317 12.6269C113.896 11.6827 113.254 10.8123 112.388 10.0176C111.536 9.23576 110.598 8.65387 109.575 8.27128C108.61 7.91287 107.628 7.73413 106.625 7.73413C106.562 7.73413 106.499 7.73482 106.436 7.73596C105.368 7.76038 104.302 7.99528 103.236 8.43975C103.216 8.44956 103.194 8.46029 103.173 8.46988L114.114 18.5138C114.124 18.4946 114.136 18.4766 114.145 18.4551C114.626 17.4747 114.88 16.4935 114.907 15.5133C114.934 14.5326 114.737 13.5713 114.317 12.6269Z" fill="#4F667C"/>
<mask id="mask0_274_330" style="mask-type:alpha" maskUnits="userSpaceOnUse" x="98" y="18" width="17" height="13">
<path fill-rule="evenodd" clip-rule="evenodd" d="M98.0908 18.2408H114.704V30.0002H98.0908V18.2408Z" fill="white"/>
</mask>
<g mask="url(#mask0_274_330)">
<path fill-rule="evenodd" clip-rule="evenodd" d="M102.296 25.1653H110.761C110.761 25.1653 106.49 31.4602 102.296 25.1653ZM114.114 18.2408H98.6945C98.294 19.4998 98.0908 20.4686 98.0908 21.6728C98.0908 22.9012 99.4425 30.0003 106.413 30.0003C113.382 30.0003 114.704 22.8674 114.704 21.639C114.704 20.4342 114.504 19.4998 114.114 18.2408Z" fill="#4F667C"/>
</g>
<path fill-rule="evenodd" clip-rule="evenodd" d="M115.284 3.51386C115.178 2.7845 115.057 2.61626 114.712 2.41469C114.262 2.15148 113.666 2.27498 113.381 2.69114C113.096 3.10798 113.23 3.65905 113.68 3.92203C114.595 4.42698 113.618 5.60628 113.607 5.62112C114.785 5.11091 115.389 4.24162 115.284 3.51386Z" fill="#A762A4"/>
<path fill-rule="evenodd" clip-rule="evenodd" d="M121.24 7.236C121.002 7.22527 120.74 7.24741 120.449 7.30882C120.569 7.62111 120.627 7.95874 120.612 8.30846C120.545 9.77654 119.204 10.9138 117.617 10.8524C116.927 10.8255 116.307 10.5757 115.828 10.1813C115.793 10.2148 115.757 10.2489 115.722 10.2813C115.504 10.4897 115.292 10.6942 115.086 10.8956C115.338 11.2809 115.568 11.6736 115.749 12.0826C115.859 12.3289 115.95 12.5773 116.034 12.8271C117.128 12.1616 118.359 11.5939 119.707 11.2606C123.297 10.3749 123.514 7.32457 121.24 7.236Z" fill="#ED7226"/>
<path fill-rule="evenodd" clip-rule="evenodd" d="M101.831 7.51148L102.462 7.19873C102.502 7.17773 102.543 7.15856 102.599 7.13459C103.77 6.64652 104.967 6.37966 106.157 6.32259C106.152 6.30342 106.147 6.28629 106.142 6.26712C106.039 5.89799 105.931 5.54781 105.82 5.2168C105.382 5.53753 104.83 5.72815 104.23 5.72815C102.816 5.72815 101.667 4.6671 101.667 3.35973C101.667 2.26079 102.478 1.33648 103.576 1.06962C102.843 0.31515 102.096 0.00012207 101.419 0.00012207C98.8873 0.00126348 97.2939 4.39156 100.717 6.64287C101.115 6.90471 101.484 7.19782 101.831 7.51148Z" fill="#D35E9E"/>
<path fill-rule="evenodd" clip-rule="evenodd" d="M101.772 11.3616C100.29 11.3616 99.0903 12.471 99.0903 13.84C99.0903 14.466 99.3412 15.0383 99.755 15.4745C100.624 14.4155 101.998 13.7323 103.545 13.7323C103.855 13.7323 104.158 13.7588 104.452 13.811C104.435 12.4557 103.241 11.3616 101.772 11.3616Z" fill="#ACCD6C"/>
<path fill-rule="evenodd" clip-rule="evenodd" d="M110.934 17.6112L105.771 12.8712C104.57 13.8021 103.807 15.1967 103.807 16.7579C103.807 17.0499 103.843 17.3332 103.896 17.6112H110.934Z" fill="#F29325"/>
<path fill-rule="evenodd" clip-rule="evenodd" d="M108.26 17.6112C108.075 15.6542 106.197 14.4792 106.197 14.4792C105.678 14.1562 105.087 13.9259 104.452 13.8113V13.8403C104.452 15.2088 103.253 16.3185 101.772 16.3185C100.967 16.3185 100.247 15.9918 99.7552 15.4748C99.2574 16.0818 98.9403 16.8159 98.8396 17.6112H108.26Z" fill="#38B5AA"/>
<path fill-rule="evenodd" clip-rule="evenodd" d="M103.545 13.7323C101.998 13.7323 100.624 14.4155 99.7551 15.4745C100.247 15.9916 100.967 16.3183 101.772 16.3183C103.253 16.3183 104.452 15.2086 104.452 13.8403V13.8113C104.158 13.7588 103.855 13.7323 103.545 13.7323Z" fill="#CEDF9A"/>
<path fill-rule="evenodd" clip-rule="evenodd" d="M104.778 13.8856C105.058 13.5076 105.391 13.1661 105.771 12.8711L104.343 11.5608C104.034 11.6455 103.754 11.7868 103.506 11.9639C104.073 12.4125 104.443 13.0686 104.452 13.8112C104.562 13.8315 104.67 13.8594 104.778 13.8856Z" fill="#D22724"/>
</svg>
