<svg width="25" height="24" viewBox="0 0 25 24" fill="none" xmlns="http://www.w3.org/2000/svg">
<path d="M10.5557 18C12.4017 18 14.0987 17.365 15.4527 16.312L19.8487 20.708L21.2627 19.294L16.8667 14.898C17.9207 13.543 18.5557 11.846 18.5557 10C18.5557 5.589 14.9667 2 10.5557 2C6.14466 2 2.55566 5.589 2.55566 10C2.55566 14.411 6.14466 18 10.5557 18ZM10.5557 4C13.8647 4 16.5557 6.691 16.5557 10C16.5557 13.309 13.8647 16 10.5557 16C7.24666 16 4.55566 13.309 4.55566 10C4.55566 6.691 7.24666 4 10.5557 4Z" fill="white"/>
<path d="M11.9677 8.58609C12.3467 8.96609 12.5557 9.46809 12.5557 10.0001H14.5557C14.5557 8.93509 14.1397 7.93109 13.3817 7.17209C11.8677 5.66009 9.24274 5.66009 7.72974 7.17209L9.14174 8.58809C9.90174 7.83009 11.2117 7.83209 11.9677 8.58609Z" fill="white"/>
</svg>
